<?xml version="1.0" encoding="utf-8" ?>
<svg baseProfile="full" height="200mm" version="1.1" viewBox="0,0,200,200" width="200mm" xmlns="http://www.w3.org/2000/svg" xmlns:ev="http://www.w3.org/2001/xml-events" xmlns:xlink="http://www.w3.org/1999/xlink"><defs /><rect fill="#1a1a1a" height="200" width="200" x="0" y="0" /><text alignment-baseline="middle" fill="#e1ed5e" style="dominant-baseline: central; font-size:9.0px; font-family:Arial;" text-anchor="middle" x="100.0" y="100.0">2022</text><line stroke="#e1ed5e" stroke-width="0.3" x1="100.0" x2="100.0" y1="15.0" y2="10.0" /><path d="M 100.0 14.0 a86.0,86.0 0 0,1 42.46469731375804,11.215312516191453" fill="none" id="id1" stroke="none" /><text fill="#e1ed5e" style="font-size:6.75px; font-family:Arial;" text-anchor="middle"><textPath startOffset="22.20632615414155" xlink:href="#id1">January</textPath></text><line stroke="#e1ed5e" stroke-width="0.3" x1="143.23703022742887" x2="145.7803849466894" y1="26.81831364943548" y2="22.513508569990506" /><path d="M 143.74570117128098 25.957352633546492 a86.0,86.0 0 0,1 28.547481713284135,27.462654790039103" fill="none" id="id2" stroke="none" /><text fill="#e1ed5e" style="font-size:6.75px; font-family:Arial;" text-anchor="middle"><textPath startOffset="19.985693538727396" xlink:href="#id2">February</textPath></text><line stroke="#e1ed5e" stroke-width="0.3" x1="172.23445277983987" x2="176.4835382374775" y1="55.19839476539836" y2="52.563006222186495" /><path d="M 173.08426987136738 54.67131705675599 a86.0,86.0 0 0,1 12.851231095245387,41.99856678651699" fill="none" id="id3" stroke="none" /><text fill="#e1ed5e" style="font-size:6.75px; font-family:Arial;" text-anchor="middle"><textPath startOffset="22.20632615414155" xlink:href="#id3">March</textPath></text><line stroke="#e1ed5e" stroke-width="0.3" x1="184.98032266829074" x2="189.97916517819016" y1="98.17113171792111" y2="98.06355123074" /><path d="M 185.9800911702706 98.14961562048488 a86.0,86.0 0 0,1 -9.607161424134198,41.387399972396054" fill="none" id="id4" stroke="none" /><text fill="#e1ed5e" style="font-size:6.75px; font-family:Arial;" text-anchor="middle"><textPath startOffset="21.466115282336823" xlink:href="#id4">April</textPath></text><line stroke="#e1ed5e" stroke-width="0.3" x1="174.80103733775053" x2="179.2010983576182" y1="140.37084112569926" y2="142.7455964860345" /><path d="M 175.68104954172406 140.8457921977663 a86.0,86.0 0 0,1 -30.038265399797805,32.042727171017184" fill="none" id="id5" stroke="none" /><text fill="#e1ed5e" style="font-size:6.75px; font-family:Arial;" text-anchor="middle"><textPath startOffset="22.206326154141568" xlink:href="#id5">May</textPath></text><path d="M 114.0293411484842 115.62618273729858 l 15.63046792560892 17.409552272626755 a44.396667239305955,44.396667239305955 0 0,0 -0.5730502933654977,0.5056502564799215 l -15.328475279336836 -17.676025670878964" fill="#ff2103" stroke="none" /><path d="M 113.75828350139079 115.86535959552629 l 23.720689438233638 27.353504363631995 a57.20615014602303,57.20615014602303 0 0,0 -0.7494946122518059,0.6387355684993528 l -23.246329349404785 -27.757764322354294" fill="#e0ff1b" stroke="none" /><path d="M 113.20401910651253 116.32954008644616 l 29.00755820891294 35.87393207790302 a67.13434117849167,67.13434117849167 0 0,0 -0.9048510596156697,0.7188684065072343 l -28.385749656579918 -36.367934398415386" fill="#3eff2d" stroke="none" /><path d="M 112.04921762599082 117.19931262002967 l 34.465468111771614 49.196751112815804 a81.06820133997596,81.06820133997596 0 0,0 -1.1497907450056088,0.7908365587666234 l -33.61352048214312 -49.782728460947524" fill="#48fbff" stroke="none" /><path d="M 111.7513745106137 117.40417183066458 l 22.271960269013444 32.98550507241056 a60.800549733722725,60.800549733722725 0 0,0 -0.872416379299514,0.5781900047885782 l -21.700869190973968 -33.36399309829046" fill="#a2ff22" stroke="none" /><line stroke="#e1ed5e" stroke-width="0.3" x1="143.8653032363475" x2="146.44561519142675" y1="172.8068346515853" y2="177.08958963109032" /><path d="M 144.38136562736335 173.6633856474863 a86.0,86.0 0 0,1 -40.68145358897372,12.25698825130547" fill="none" id="id6" stroke="none" /><text fill="#e1ed5e" style="font-size:6.75px; font-family:Arial;" text-anchor="middle"><textPath startOffset="21.466115282336833" xlink:href="#id6">June</textPath></text><path d="M 110.21172684928248 118.3499491758327 l 29.444601846299104 52.91043869041424 a81.55162343239994,81.55162343239994 0 0,0 -1.23250594916771,0.672060514244941 l -28.529473085262747 -53.40943985641895" fill="#48f4ff" stroke="none" /><path d="M 108.59647513512805 119.15986991738527 l 22.98448265099145 51.227938287386806 a77.14791272977152,77.14791272977152 0 0,0 -1.2162894713397734,0.5331855607826584 l -22.099272504993923 -51.61598840146392" fill="#40ffc8" stroke="none" /><path d="M 107.93186726928326 119.44442032107085 l 23.37046135294232 57.291058740196895 a82.87442020271432,82.87442020271432 0 0,0 -1.3255129086353288,0.5274489418147716 l -22.380827368265127 -57.68485452641774" fill="#4be1ff" stroke="none" /><path d="M 107.59598834532513 119.57807347666477 l 22.284262665026155 57.4359664595438 a82.60745576361451,82.60745576361451 0 0,0 -1.3300971800431591,0.5029289416008188 l -21.29229526422272 -57.811043651251246" fill="#4ae5ff" stroke="none" /><path d="M 106.91757812671514 119.82793768551818 l 20.368490505501097 58.382450200518775 a82.8335337570864,82.8335337570864 0 0,0 -1.3503059872769816,0.45809710453435765 l -19.360514785286888 -58.72441029195126" fill="#4be2ff" stroke="none" /><path d="M 106.57524785965236 119.94407469862006 l 19.725743578957097 59.83222409586019 a84.0,84.0 0 0,0 -1.3771146196362385,0.4409086133611737 l -18.692907614229917 -60.16290555588107" fill="#4dd2ff" stroke="none" /><path d="M 106.2309692047433 120.05430185196036 l 18.29934642584122 58.89623345242164 a82.67359560213023,82.67359560213023 0 0,0 -1.3626381138525765,0.4105516858128886 l -17.2828333375484 -59.202500507340254" fill="#4be4ff" stroke="none" /><path d="M 105.53697534728816 120.25689768951611 l 12.764562419465538 46.69885971394032 a69.41195670846935,69.41195670846935 0 0,0 -1.1552448691792683,0.305110669807469 l -11.958827107474772 -46.911661733051375" fill="#32ff46" stroke="none" /><line stroke="#e1ed5e" stroke-width="0.3" x1="102.19456741930631" x2="102.32365962044197" y1="184.97166512339345" y2="189.96999836594603" /><path d="M 102.22038585953345 185.97133177190398 a86.0,86.0 0 0,1 -42.740103519485714,-10.115201625700543" fill="none" id="id7" stroke="none" /><text fill="#e1ed5e" style="font-size:6.75px; font-family:Arial;" text-anchor="middle"><textPath startOffset="22.20632615414155" xlink:href="#id7">July</textPath></text><line stroke="#e1ed5e" stroke-width="0.3" x1="58.666819895761336" x2="56.23545636021788" y1="174.27360380694188" y2="178.64263932499728" /><path d="M 58.180547188652646 175.14741091055294 a86.0,86.0 0 0,1 -31.652253787137756,-30.449443065178592" fill="none" id="id8" stroke="none" /><text fill="#e1ed5e" style="font-size:6.75px; font-family:Arial;" text-anchor="middle"><textPath startOffset="22.20632615414155" xlink:href="#id8">August</textPath></text><line stroke="#e1ed5e" stroke-width="0.3" x1="26.63291911575756" x2="22.317208475507996" y1="142.92168965132927" y2="145.44649492493687" /><path d="M 25.769776987707644 143.4266507060508 a86.0,86.0 0 0,1 -11.730757126820373,-40.83630448921669" fill="none" id="id9" stroke="none" /><text fill="#e1ed5e" style="font-size:6.75px; font-family:Arial;" text-anchor="middle"><textPath startOffset="21.46611528233685" xlink:href="#id9">September</textPath></text><path d="M 79.97269907076064 106.31721596034903 l -36.166807656444625 11.408104135919773 a58.92338086239479,58.92338086239479 0 0,0 -0.2967864842221909,-0.9699154023891778 l 36.357820913172944 -10.783861760978548" fill="#c2ff1e" stroke="none" /><path d="M 79.58551787078972 104.9243191809786 l -27.191253182467584 6.558991247183321 a48.971138979556784,48.971138979556784 0 0,0 -0.1906130088535763,-0.8211558533352811 l 27.300126757251714 -6.089966736499465" fill="#ff810b" stroke="none" /><path d="M 79.07016306316243 101.71520430193888 l -47.39326244020892 3.8838872880701585 a68.552138807765,68.552138807765 0 0,0 -0.08625635324863423,-1.1768994090858196 l 47.453095352121885 -3.067514742487578" fill="#30ff37" stroke="none" /><line stroke="#e1ed5e" stroke-width="0.3" x1="15.007084014347285" x2="10.007500721073583" y1="101.09737516637583" y2="101.16192664675087" /><path d="M 14.007167355692545 101.11028546245083 a86.0,86.0 0 0,1 10.666146001902534,-42.60595125391555" fill="none" id="id10" stroke="none" /><text fill="#e1ed5e" style="font-size:6.75px; font-family:Arial;" text-anchor="middle"><textPath startOffset="22.20632615414155" xlink:href="#id10">October</textPath></text><path d="M 79.08570108090925 98.10471618934814 l -32.52417200628459 -2.9473871869594235 a53.65744717402508,53.65744717402508 0 0,0 0.09127610674334058,-0.9191379384967256 l 32.46861877385902 3.5068006561605793" fill="#ffdd14" stroke="none" /><path d="M 79.91906864156998 93.8553929516997 l -20.905419005683893 -6.396893783318993 a42.86222298574128,42.86222298574128 0 0,0 0.22195389062875281,-0.7036544876632486 l 20.792209631286937 6.755798437408656" fill="#ff0000" stroke="none" /><path d="M 80.38941819471856 92.48833698450439 l -26.501180783532995 -10.151047099735504 a49.378800893317305,49.378800893317305 0 0,0 0.3108664751049648,-0.7911212713147893 l 26.32252075854634 10.605717375946057" fill="#ff890c" stroke="none" /><path d="M 80.52162464483688 92.15188598940014 l -24.10174280904569 -9.710934406519021 a46.984538739048276,46.984538739048276 0 0,0 0.3087070189354229,-0.7475585327732163 l 23.93101410322407 10.124367509745548" fill="#ff5808" stroke="none" /><path d="M 80.95270993114464 91.15688171328213 l -34.14725477785345 -15.85360500499779 a58.64799862566569,58.64799862566569 0 0,0 0.43299483973760394,-0.9119975599387988 l 33.86930174427409 16.439044980577123" fill="#c7ff1e" stroke="none" /><path d="M 81.43458229118936 90.18545643968196 l -29.031920448502603 -15.347623864465737 a53.8390310943137,53.8390310943137 0 0,0 0.4401774088008818,-0.8155818871455 l 28.76343494048325 15.84508673494371" fill="#ffe015" stroke="none" /><line stroke="#e1ed5e" stroke-width="0.3" x1="26.266209847984243" x2="21.928928074336255" y1="57.711370442889674" y2="55.22380399835377" /><path d="M 25.398753493254645 57.213857153982495 a86.0,86.0 0 0,1 29.58750427330803,-30.492523968695096" fill="none" id="id11" stroke="none" /><text fill="#e1ed5e" style="font-size:6.75px; font-family:Arial;" text-anchor="middle"><textPath startOffset="21.46611528233685" xlink:href="#id11">November</textPath></text><path d="M 81.78341655067845 89.55222093294921 l -26.02667107945785 -14.927108041168019 a51.00343583576705,51.00343583576705 0 0,0 0.4433420847901338,-0.7578153343546004 l 25.76586932019739 15.37290278787651" fill="#ffaa0f" stroke="none" /><path d="M 87.22198572758235 83.33499621200491 l -16.50246554920892 -21.5224091181729 a48.120941419000175,48.120941419000175 0 0,0 0.6616717580715953,-0.49835745028538814 l 16.129547637378938 21.80328315796414" fill="#ff700a" stroke="none" /><line stroke="#e1ed5e" stroke-width="0.3" x1="56.762969772571076" x2="54.21961505331055" y1="26.818313649435495" y2="22.513508569990535" /><path d="M 56.25429882871897 25.957352633546506 a86.0,86.0 0 0,1 42.265352541879196,-11.944610805530505" fill="none" id="id12" stroke="none" /><text fill="#e1ed5e" style="font-size:6.75px; font-family:Arial;" text-anchor="middle"><textPath startOffset="22.20632615414155" xlink:href="#id12">December</textPath></text><path d="M 92.91201910852362 80.23233633223022 l -14.246991769553485 -39.73342280263341 a63.21044494073183,63.21044494073183 0 0,0 1.0273743994970779,-0.3584307549593978 l 13.560935365993123 39.97277441076502" fill="#7bff26" stroke="none" /><path d="M 93.59665428221793 80.00007090966166 l -10.119654991659498 -31.60728643618838 a54.18776842466931,54.18776842466931 0 0,0 0.8907814419218837,-0.2767701301069994 l 9.574088177026885 31.776796701177904" fill="#ffe715" stroke="none" /></svg>